<svg id="Capa_1" data-name="Capa 1" xmlns="http://www.w3.org/2000/svg" viewBox="0 0 85.02 84.83">
<defs>
<style>.cls-1,.cls-2{fill:#edf0f2;}.cls-2{font-size:4.65px;}</style>
</defs>
<title>logo</title>
<path class="cls-1" d="M61.42,39a29.7,29.7,0,0,1-35.64,0l2.31-3.07h0a25.87,25.87,0,0,0,31,0Z" transform="translate(-3.04 -4.91)"/>
<polygon class="cls-1" points="48.32 0 43.15 10.34 45.74 10.34 45.74 25.86 50.91 25.86 50.91 10.34 53.5 10.34 48.32 0"/>
<polygon class="cls-1" points="32.81 0 27.64 10.34 30.23 10.34 30.23 25.86 35.4 25.86 35.4 10.34 37.98 10.34 32.81 0"/>
<path class="cls-1" d="M87.15,80.67a1.59,1.59,0,0,1-.55.09,1.63,1.63,0,0,1-.55-.09,1.27,1.27,0,0,1-.41-.24,1.35,1.35,0,0,1-.28-.35,1.54,1.54,0,0,1-.17-.42,2,2,0,0,1,0-.88,1.68,1.68,0,0,1,.17-.42,1.35,1.35,0,0,1,.28-.35,1.09,1.09,0,0,1,.41-.23,1.63,1.63,0,0,1,.55-.09,1.59,1.59,0,0,1,.55.09,1.09,1.09,0,0,1,.41.23,1.35,1.35,0,0,1,.28.35,1.68,1.68,0,0,1,.17.42,2.12,2.12,0,0,1,0,.44,2.3,2.3,0,0,1,0,.45,1.32,1.32,0,0,1-.17.41,1.27,1.27,0,0,1-.69.59Zm-.55-.11a1.34,1.34,0,0,0,.46-.08,1,1,0,0,0,.34-.2.89.89,0,0,0,.24-.3,1.14,1.14,0,0,0,.15-.36,1.75,1.75,0,0,0,0-.4,1.67,1.67,0,0,0,0-.39,1.31,1.31,0,0,0-.15-.37,1,1,0,0,0-.24-.29,1,1,0,0,0-.34-.21,1.55,1.55,0,0,0-.92,0,1.07,1.07,0,0,0-.35.2,1.76,1.76,0,0,0-.24.3,1.28,1.28,0,0,0-.14.37,1.67,1.67,0,0,0,0,.39,1.75,1.75,0,0,0,0,.4,1.13,1.13,0,0,0,.14.36,1.22,1.22,0,0,0,.24.3.92.92,0,0,0,.35.2A1.34,1.34,0,0,0,86.6,80.56ZM86,80.15V78.27h.58a.79.79,0,0,1,.5.13.52.52,0,0,1,.16.41.55.55,0,0,1-.07.28.5.5,0,0,1-.22.18l.34.88h-.44l-.28-.79h-.15v.79Zm.42-1h.07a.38.38,0,0,0,.26-.07.34.34,0,0,0,.08-.25.28.28,0,0,0-.07-.21.23.23,0,0,0-.2-.08h-.14Z" transform="translate(-3.04 -4.91)"/>
<path class="cls-1" d="M7.85,81Q3.26,81,3,75.67l2.74-.57c.07,2.29.73,3.44,2,3.44a1.29,1.29,0,0,0,1.07-.44,1.8,1.8,0,0,0,.35-1.18,3.25,3.25,0,0,0-.26-1.33,3.55,3.55,0,0,0-.6-1,12.07,12.07,0,0,0-1-.94L5,71.69a6.16,6.16,0,0,1-1.49-1.83,5.06,5.06,0,0,1-.49-2.36,4.09,4.09,0,0,1,1.18-3.14A4.6,4.6,0,0,1,7.5,63.22a5.1,5.1,0,0,1,1.68.23,3.76,3.76,0,0,1,1.21.66,3.6,3.6,0,0,1,.8,1,5.48,5.48,0,0,1,.47,1.28,9.05,9.05,0,0,1,.22,1.48l-2.7.54c0-.35,0-.66-.06-.91A5.89,5.89,0,0,0,9,66.74a1.9,1.9,0,0,0-.29-.64,1.3,1.3,0,0,0-.5-.39,1.35,1.35,0,0,0-.71-.12,1.47,1.47,0,0,0-1.07.47A1.64,1.64,0,0,0,6,67.19a2.61,2.61,0,0,0,.33,1.38,5.44,5.44,0,0,0,1,1.15l2.26,2a11.54,11.54,0,0,1,1,1,10.1,10.1,0,0,1,.8,1.1A5.36,5.36,0,0,1,12,75.14a6.14,6.14,0,0,1,.19,1.57A4.1,4.1,0,0,1,11,79.78,4.28,4.28,0,0,1,7.85,81Z" transform="translate(-3.04 -4.91)"/>
<path class="cls-1" d="M13.91,80.76V63.42h2.92v6.16a4.41,4.41,0,0,1,3.08-1.39,2,2,0,0,1,.79.15,1.54,1.54,0,0,1,.58.4,2.48,2.48,0,0,1,.37.61,2.83,2.83,0,0,1,.22.72,5,5,0,0,1,.06.79v9.9H19V71.51a1.67,1.67,0,0,0-.17-.87.66.66,0,0,0-.65-.27,2.46,2.46,0,0,0-1.36.61v9.78Z" transform="translate(-3.04 -4.91)"/>
<path class="cls-1" d="M29.43,84.83V68.37h2.93v1a3.41,3.41,0,0,1,2.5-1.14,2.23,2.23,0,0,1,1.16.3,2.27,2.27,0,0,1,.8.73,4,4,0,0,1,.47,1,6.26,6.26,0,0,1,.24,1.1,7,7,0,0,1,.07,1v4.06a9.34,9.34,0,0,1-.16,1.73A5.74,5.74,0,0,1,37,79.59a2.47,2.47,0,0,1-.92,1,2.51,2.51,0,0,1-1.36.36,3.35,3.35,0,0,1-2.31-1.12v5Zm4.21-6a.85.85,0,0,0,.55-.18,1.11,1.11,0,0,0,.32-.53,4.46,4.46,0,0,0,.13-.73,7.52,7.52,0,0,0,0-.89V72.25a5.7,5.7,0,0,0,0-.76,2.69,2.69,0,0,0-.16-.65.91.91,0,0,0-.9-.63,2.07,2.07,0,0,0-1.21.5v7.76A2.47,2.47,0,0,0,33.64,78.85Z" transform="translate(-3.04 -4.91)"/>
<path class="cls-1" d="M39.72,74.94v-2h5.17v2Z" transform="translate(-3.04 -4.91)"/>
<path class="cls-1" d="M55.78,84.23a6.67,6.67,0,0,1-1.73-1.32,12.86,12.86,0,0,1-1.6-2h-.36a4.64,4.64,0,0,1-3.84-1.45,6.74,6.74,0,0,1-1.16-4.26v-6.4a9.87,9.87,0,0,1,.26-2.39,4.81,4.81,0,0,1,.85-1.76,3.5,3.5,0,0,1,1.55-1.11,6.53,6.53,0,0,1,2.34-.37,4.66,4.66,0,0,1,3.83,1.43,6.53,6.53,0,0,1,1.17,4.2v6.4q0,4.05-2.41,5.2a8,8,0,0,0,1.69,1.63ZM51.3,78.49a2.47,2.47,0,0,0,1.58,0,1.38,1.38,0,0,0,.51-.36,1.72,1.72,0,0,0,.31-.57,3.66,3.66,0,0,0,.14-.72,6.74,6.74,0,0,0,0-.84V68.12a7.47,7.47,0,0,0-.06-1,2.7,2.7,0,0,0-.25-.79,1.19,1.19,0,0,0-.55-.56,2.49,2.49,0,0,0-1.86,0,1.19,1.19,0,0,0-.55.56,2.68,2.68,0,0,0-.24.79,6.06,6.06,0,0,0-.07,1V76c0,.33,0,.61,0,.84a3.08,3.08,0,0,0,.15.72,1.7,1.7,0,0,0,.29.57A1.34,1.34,0,0,0,51.3,78.49Z" transform="translate(-3.04 -4.91)"/>
<path class="cls-1" d="M61.17,80.94a1.66,1.66,0,0,1-1.54-.77,3.47,3.47,0,0,1-.49-1.9v-9.9h2.92v9.3a1.76,1.76,0,0,0,.17.86.69.69,0,0,0,.66.27,2.33,2.33,0,0,0,1.26-.52V68.37h2.92V80.76H64.15V79.59A4.44,4.44,0,0,1,61.17,80.94Z" transform="translate(-3.04 -4.91)"/>
<path class="cls-1" d="M74.68,80.73V63.4h2.91v9.92l3.09-4.94h3.17l-3,5,3,7.43H80.73l-2.2-6.09L77.59,76v4.72Z" transform="translate(-3.04 -4.91)"/>
<path class="cls-1" d="M24.2,66.42V64h2.94v2.47Zm0,14.34V68.37h2.93V80.76Z" transform="translate(-3.04 -4.91)"/>
<path class="cls-1" d="M69.4,66.42V64h2.94v2.47Zm0,14.34V68.37h2.93V80.76Z" transform="translate(-3.04 -4.91)"/>
<text class="cls-2" transform="translate(56.86 83.49)">This smile up!</text>
</svg>
